<mxfile host="app.diagrams.net" agent="Mozilla/5.0 (Windows NT 10.0; Win64; x64) AppleWebKit/537.36 (KHTML, like Gecko) Chrome/137.0.0.0 Safari/537.36 Edg/137.0.0.0" version="27.1.4">
  <diagram name="Page-1" id="XcNwkj9A9RcoI1uySw65">
    <mxGraphModel dx="4717" dy="2690" grid="1" gridSize="10" guides="1" tooltips="1" connect="1" arrows="1" fold="1" page="1" pageScale="1" pageWidth="850" pageHeight="1100" math="0" shadow="0">
      <root>
        <mxCell id="0" />
        <mxCell id="1" parent="0" />
        <mxCell id="gVcf6k5lS88BYvhWTb9o-1" value="" style="rounded=1;whiteSpace=wrap;html=1;" vertex="1" parent="1">
          <mxGeometry x="260" y="310" width="3385" height="2480" as="geometry" />
        </mxCell>
        <mxCell id="gVcf6k5lS88BYvhWTb9o-2" style="edgeStyle=orthogonalEdgeStyle;rounded=0;orthogonalLoop=1;jettySize=auto;html=1;exitX=0.25;exitY=1;exitDx=0;exitDy=0;entryX=0.25;entryY=0;entryDx=0;entryDy=0;strokeWidth=4;" edge="1" parent="1" source="gVcf6k5lS88BYvhWTb9o-3" target="gVcf6k5lS88BYvhWTb9o-11">
          <mxGeometry relative="1" as="geometry" />
        </mxCell>
        <mxCell id="gVcf6k5lS88BYvhWTb9o-3" value="&lt;b style=&quot;&quot;&gt;&lt;font style=&quot;font-size: 43px;&quot;&gt;HA&lt;/font&gt;&lt;/b&gt;" style="whiteSpace=wrap;html=1;aspect=fixed;fillColor=#fff2cc;strokeColor=#d6b656;strokeWidth=8;" vertex="1" parent="1">
          <mxGeometry x="1645" y="737" width="120" height="120" as="geometry" />
        </mxCell>
        <mxCell id="gVcf6k5lS88BYvhWTb9o-4" style="edgeStyle=orthogonalEdgeStyle;rounded=0;orthogonalLoop=1;jettySize=auto;html=1;exitX=0.25;exitY=1;exitDx=0;exitDy=0;entryX=0.25;entryY=0;entryDx=0;entryDy=0;strokeWidth=4;" edge="1" parent="1" source="gVcf6k5lS88BYvhWTb9o-5" target="gVcf6k5lS88BYvhWTb9o-13">
          <mxGeometry relative="1" as="geometry" />
        </mxCell>
        <mxCell id="gVcf6k5lS88BYvhWTb9o-5" value="&lt;b&gt;&lt;font style=&quot;font-size: 43px;&quot;&gt;FA&lt;/font&gt;&lt;/b&gt;" style="whiteSpace=wrap;html=1;aspect=fixed;fillColor=#ffe6cc;strokeColor=#d79b00;strokeWidth=8;" vertex="1" parent="1">
          <mxGeometry x="1884" y="737" width="120" height="120" as="geometry" />
        </mxCell>
        <mxCell id="gVcf6k5lS88BYvhWTb9o-6" style="edgeStyle=orthogonalEdgeStyle;rounded=0;orthogonalLoop=1;jettySize=auto;html=1;exitX=0.25;exitY=1;exitDx=0;exitDy=0;entryX=0.25;entryY=0;entryDx=0;entryDy=0;strokeWidth=4;" edge="1" parent="1" source="gVcf6k5lS88BYvhWTb9o-7" target="gVcf6k5lS88BYvhWTb9o-21">
          <mxGeometry relative="1" as="geometry" />
        </mxCell>
        <mxCell id="gVcf6k5lS88BYvhWTb9o-7" value="&lt;b&gt;&lt;font style=&quot;font-size: 43px;&quot;&gt;FA&lt;/font&gt;&lt;/b&gt;" style="whiteSpace=wrap;html=1;aspect=fixed;fillColor=#ffe6cc;strokeColor=#d79b00;strokeWidth=8;" vertex="1" parent="1">
          <mxGeometry x="2124" y="737" width="120" height="120" as="geometry" />
        </mxCell>
        <mxCell id="gVcf6k5lS88BYvhWTb9o-8" style="edgeStyle=orthogonalEdgeStyle;rounded=0;orthogonalLoop=1;jettySize=auto;html=1;exitX=0.25;exitY=1;exitDx=0;exitDy=0;entryX=0.25;entryY=0;entryDx=0;entryDy=0;fontSize=13;strokeWidth=5;" edge="1" parent="1" source="gVcf6k5lS88BYvhWTb9o-9" target="gVcf6k5lS88BYvhWTb9o-34">
          <mxGeometry relative="1" as="geometry" />
        </mxCell>
        <mxCell id="gVcf6k5lS88BYvhWTb9o-9" value="&lt;span style=&quot;font-size: 43px;&quot;&gt;&lt;b&gt;FA&lt;/b&gt;&lt;/span&gt;" style="whiteSpace=wrap;html=1;aspect=fixed;fillColor=#ffe6cc;strokeColor=#d79b00;strokeWidth=8;" vertex="1" parent="1">
          <mxGeometry x="1405.5" y="1140" width="120" height="120" as="geometry" />
        </mxCell>
        <mxCell id="gVcf6k5lS88BYvhWTb9o-10" style="edgeStyle=orthogonalEdgeStyle;rounded=0;orthogonalLoop=1;jettySize=auto;html=1;exitX=0.25;exitY=1;exitDx=0;exitDy=0;entryX=0.25;entryY=0;entryDx=0;entryDy=0;fontSize=13;strokeWidth=5;" edge="1" parent="1" source="gVcf6k5lS88BYvhWTb9o-11" target="gVcf6k5lS88BYvhWTb9o-36">
          <mxGeometry relative="1" as="geometry" />
        </mxCell>
        <mxCell id="gVcf6k5lS88BYvhWTb9o-11" value="&lt;b style=&quot;font-size: 43px;&quot;&gt;FA&lt;/b&gt;" style="whiteSpace=wrap;html=1;aspect=fixed;fillColor=#ffe6cc;strokeColor=#d79b00;strokeWidth=8;" vertex="1" parent="1">
          <mxGeometry x="1644.5" y="1140" width="120" height="120" as="geometry" />
        </mxCell>
        <mxCell id="gVcf6k5lS88BYvhWTb9o-12" style="edgeStyle=orthogonalEdgeStyle;rounded=0;orthogonalLoop=1;jettySize=auto;html=1;exitX=0.25;exitY=1;exitDx=0;exitDy=0;entryX=0.25;entryY=0;entryDx=0;entryDy=0;fontSize=13;strokeWidth=5;" edge="1" parent="1" source="gVcf6k5lS88BYvhWTb9o-13" target="gVcf6k5lS88BYvhWTb9o-41">
          <mxGeometry relative="1" as="geometry" />
        </mxCell>
        <mxCell id="gVcf6k5lS88BYvhWTb9o-13" value="&lt;b style=&quot;font-size: 43px;&quot;&gt;FA&lt;/b&gt;" style="whiteSpace=wrap;html=1;aspect=fixed;fillColor=#ffe6cc;strokeColor=#d79b00;strokeWidth=8;" vertex="1" parent="1">
          <mxGeometry x="1884.5" y="1140" width="120" height="120" as="geometry" />
        </mxCell>
        <mxCell id="gVcf6k5lS88BYvhWTb9o-14" style="edgeStyle=orthogonalEdgeStyle;rounded=0;orthogonalLoop=1;jettySize=auto;html=1;exitX=0.25;exitY=1;exitDx=0;exitDy=0;entryX=0.25;entryY=0;entryDx=0;entryDy=0;strokeWidth=4;" edge="1" parent="1" source="gVcf6k5lS88BYvhWTb9o-15" target="gVcf6k5lS88BYvhWTb9o-23">
          <mxGeometry relative="1" as="geometry" />
        </mxCell>
        <mxCell id="gVcf6k5lS88BYvhWTb9o-15" value="&lt;b&gt;&lt;font style=&quot;font-size: 43px;&quot;&gt;FA&lt;/font&gt;&lt;/b&gt;" style="whiteSpace=wrap;html=1;aspect=fixed;fillColor=#ffe6cc;strokeColor=#d79b00;strokeWidth=8;" vertex="1" parent="1">
          <mxGeometry x="2364.5" y="737" width="120" height="120" as="geometry" />
        </mxCell>
        <mxCell id="gVcf6k5lS88BYvhWTb9o-16" style="edgeStyle=orthogonalEdgeStyle;rounded=0;orthogonalLoop=1;jettySize=auto;html=1;exitX=0.25;exitY=1;exitDx=0;exitDy=0;entryX=0.25;entryY=0;entryDx=0;entryDy=0;strokeWidth=4;" edge="1" parent="1" source="gVcf6k5lS88BYvhWTb9o-17" target="gVcf6k5lS88BYvhWTb9o-25">
          <mxGeometry relative="1" as="geometry" />
        </mxCell>
        <mxCell id="gVcf6k5lS88BYvhWTb9o-17" value="&lt;b&gt;&lt;font style=&quot;font-size: 43px;&quot;&gt;FA&lt;/font&gt;&lt;/b&gt;" style="whiteSpace=wrap;html=1;aspect=fixed;fillColor=#ffe6cc;strokeColor=#d79b00;strokeWidth=8;" vertex="1" parent="1">
          <mxGeometry x="2603.5" y="737" width="120" height="120" as="geometry" />
        </mxCell>
        <mxCell id="gVcf6k5lS88BYvhWTb9o-18" style="edgeStyle=orthogonalEdgeStyle;rounded=0;orthogonalLoop=1;jettySize=auto;html=1;exitX=0.5;exitY=1;exitDx=0;exitDy=0;strokeWidth=3;" edge="1" parent="1" source="gVcf6k5lS88BYvhWTb9o-19">
          <mxGeometry relative="1" as="geometry">
            <mxPoint x="2904.857142857143" y="2550" as="targetPoint" />
          </mxGeometry>
        </mxCell>
        <mxCell id="gVcf6k5lS88BYvhWTb9o-19" value="&lt;b&gt;&lt;font style=&quot;font-size: 43px;&quot;&gt;HA&lt;/font&gt;&lt;/b&gt;" style="whiteSpace=wrap;html=1;aspect=fixed;fillColor=#fff2cc;strokeColor=#d6b656;strokeWidth=8;" vertex="1" parent="1">
          <mxGeometry x="2843.5" y="737" width="120" height="120" as="geometry" />
        </mxCell>
        <mxCell id="gVcf6k5lS88BYvhWTb9o-20" style="edgeStyle=orthogonalEdgeStyle;rounded=0;orthogonalLoop=1;jettySize=auto;html=1;exitX=0.25;exitY=1;exitDx=0;exitDy=0;entryX=0.25;entryY=0;entryDx=0;entryDy=0;fontSize=13;strokeWidth=5;" edge="1" parent="1" source="gVcf6k5lS88BYvhWTb9o-21" target="gVcf6k5lS88BYvhWTb9o-43">
          <mxGeometry relative="1" as="geometry" />
        </mxCell>
        <mxCell id="gVcf6k5lS88BYvhWTb9o-21" value="&lt;b style=&quot;font-size: 43px;&quot;&gt;FA&lt;/b&gt;" style="whiteSpace=wrap;html=1;aspect=fixed;fillColor=#ffe6cc;strokeColor=#d79b00;strokeWidth=8;" vertex="1" parent="1">
          <mxGeometry x="2124.5" y="1140" width="120" height="120" as="geometry" />
        </mxCell>
        <mxCell id="gVcf6k5lS88BYvhWTb9o-22" style="edgeStyle=orthogonalEdgeStyle;rounded=0;orthogonalLoop=1;jettySize=auto;html=1;exitX=0.25;exitY=1;exitDx=0;exitDy=0;entryX=0.25;entryY=0;entryDx=0;entryDy=0;fontSize=13;strokeWidth=5;" edge="1" parent="1" source="gVcf6k5lS88BYvhWTb9o-23" target="gVcf6k5lS88BYvhWTb9o-45">
          <mxGeometry relative="1" as="geometry" />
        </mxCell>
        <mxCell id="gVcf6k5lS88BYvhWTb9o-23" value="&lt;b style=&quot;font-size: 43px;&quot;&gt;FA&lt;/b&gt;" style="whiteSpace=wrap;html=1;aspect=fixed;fillColor=#ffe6cc;strokeColor=#d79b00;strokeWidth=8;" vertex="1" parent="1">
          <mxGeometry x="2363.5" y="1140" width="120" height="120" as="geometry" />
        </mxCell>
        <mxCell id="gVcf6k5lS88BYvhWTb9o-24" style="edgeStyle=orthogonalEdgeStyle;rounded=0;orthogonalLoop=1;jettySize=auto;html=1;exitX=0.5;exitY=1;exitDx=0;exitDy=0;strokeWidth=3;" edge="1" parent="1" source="gVcf6k5lS88BYvhWTb9o-25">
          <mxGeometry relative="1" as="geometry">
            <mxPoint x="2665" y="2540" as="targetPoint" />
          </mxGeometry>
        </mxCell>
        <mxCell id="gVcf6k5lS88BYvhWTb9o-25" value="&lt;b style=&quot;font-size: 43px;&quot;&gt;HA&lt;/b&gt;" style="whiteSpace=wrap;html=1;aspect=fixed;fillColor=#fff2cc;strokeColor=#d6b656;strokeWidth=8;" vertex="1" parent="1">
          <mxGeometry x="2603.5" y="1140" width="120" height="120" as="geometry" />
        </mxCell>
        <mxCell id="gVcf6k5lS88BYvhWTb9o-26" value="" style="endArrow=none;dashed=1;html=1;rounded=0;entryX=0;entryY=1;entryDx=0;entryDy=0;exitX=1;exitY=0;exitDx=0;exitDy=0;startArrow=classic;startFill=1;strokeWidth=4;" edge="1" parent="1" source="gVcf6k5lS88BYvhWTb9o-11" target="gVcf6k5lS88BYvhWTb9o-5">
          <mxGeometry width="50" height="50" relative="1" as="geometry">
            <mxPoint x="1705" y="1170" as="sourcePoint" />
            <mxPoint x="1755" y="1120" as="targetPoint" />
          </mxGeometry>
        </mxCell>
        <mxCell id="gVcf6k5lS88BYvhWTb9o-27" value="" style="endArrow=none;dashed=1;html=1;rounded=0;entryX=0;entryY=1;entryDx=0;entryDy=0;exitX=1;exitY=0;exitDx=0;exitDy=0;startArrow=classic;startFill=1;strokeWidth=4;" edge="1" parent="1" source="gVcf6k5lS88BYvhWTb9o-13" target="gVcf6k5lS88BYvhWTb9o-7">
          <mxGeometry width="50" height="50" relative="1" as="geometry">
            <mxPoint x="1775" y="1150" as="sourcePoint" />
            <mxPoint x="1894" y="867" as="targetPoint" />
          </mxGeometry>
        </mxCell>
        <mxCell id="gVcf6k5lS88BYvhWTb9o-28" value="" style="endArrow=none;dashed=1;html=1;rounded=0;entryX=0;entryY=1;entryDx=0;entryDy=0;exitX=1;exitY=0;exitDx=0;exitDy=0;startArrow=classic;startFill=1;strokeWidth=4;" edge="1" parent="1" source="gVcf6k5lS88BYvhWTb9o-21" target="gVcf6k5lS88BYvhWTb9o-15">
          <mxGeometry width="50" height="50" relative="1" as="geometry">
            <mxPoint x="2015" y="1150" as="sourcePoint" />
            <mxPoint x="2134" y="867" as="targetPoint" />
          </mxGeometry>
        </mxCell>
        <mxCell id="gVcf6k5lS88BYvhWTb9o-29" value="" style="endArrow=none;dashed=1;html=1;rounded=0;entryX=0;entryY=1;entryDx=0;entryDy=0;exitX=1;exitY=0;exitDx=0;exitDy=0;startArrow=classic;startFill=1;strokeWidth=4;" edge="1" parent="1" source="gVcf6k5lS88BYvhWTb9o-23" target="gVcf6k5lS88BYvhWTb9o-17">
          <mxGeometry width="50" height="50" relative="1" as="geometry">
            <mxPoint x="2255" y="1150" as="sourcePoint" />
            <mxPoint x="2375" y="867" as="targetPoint" />
          </mxGeometry>
        </mxCell>
        <mxCell id="gVcf6k5lS88BYvhWTb9o-30" value="" style="endArrow=none;dashed=1;html=1;rounded=0;entryX=0;entryY=1;entryDx=0;entryDy=0;exitX=1;exitY=0;exitDx=0;exitDy=0;startArrow=classic;startFill=1;strokeWidth=4;" edge="1" parent="1" source="gVcf6k5lS88BYvhWTb9o-25" target="gVcf6k5lS88BYvhWTb9o-19">
          <mxGeometry width="50" height="50" relative="1" as="geometry">
            <mxPoint x="2494" y="1150" as="sourcePoint" />
            <mxPoint x="2614" y="867" as="targetPoint" />
          </mxGeometry>
        </mxCell>
        <mxCell id="gVcf6k5lS88BYvhWTb9o-31" style="edgeStyle=orthogonalEdgeStyle;rounded=0;orthogonalLoop=1;jettySize=auto;html=1;exitX=0.25;exitY=1;exitDx=0;exitDy=0;entryX=0.25;entryY=0;entryDx=0;entryDy=0;strokeWidth=4;" edge="1" parent="1" source="gVcf6k5lS88BYvhWTb9o-32" target="gVcf6k5lS88BYvhWTb9o-38">
          <mxGeometry relative="1" as="geometry" />
        </mxCell>
        <mxCell id="gVcf6k5lS88BYvhWTb9o-32" value="&lt;b style=&quot;font-size: 43px;&quot;&gt;FA&lt;/b&gt;" style="whiteSpace=wrap;html=1;aspect=fixed;fillColor=#ffe6cc;strokeColor=#d79b00;strokeWidth=8;" vertex="1" parent="1">
          <mxGeometry x="1165" y="1543" width="120" height="120" as="geometry" />
        </mxCell>
        <mxCell id="gVcf6k5lS88BYvhWTb9o-33" style="edgeStyle=orthogonalEdgeStyle;rounded=0;orthogonalLoop=1;jettySize=auto;html=1;exitX=0.25;exitY=1;exitDx=0;exitDy=0;entryX=0.25;entryY=0;entryDx=0;entryDy=0;strokeWidth=4;" edge="1" parent="1" source="gVcf6k5lS88BYvhWTb9o-34" target="gVcf6k5lS88BYvhWTb9o-39">
          <mxGeometry relative="1" as="geometry" />
        </mxCell>
        <mxCell id="gVcf6k5lS88BYvhWTb9o-34" value="&lt;b style=&quot;font-size: 43px;&quot;&gt;FA&lt;/b&gt;" style="whiteSpace=wrap;html=1;aspect=fixed;fillColor=#ffe6cc;strokeColor=#d79b00;strokeWidth=8;" vertex="1" parent="1">
          <mxGeometry x="1404" y="1543" width="120" height="120" as="geometry" />
        </mxCell>
        <mxCell id="gVcf6k5lS88BYvhWTb9o-35" style="edgeStyle=orthogonalEdgeStyle;rounded=0;orthogonalLoop=1;jettySize=auto;html=1;exitX=0.25;exitY=1;exitDx=0;exitDy=0;entryX=0.25;entryY=0;entryDx=0;entryDy=0;strokeWidth=4;" edge="1" parent="1" source="gVcf6k5lS88BYvhWTb9o-36" target="gVcf6k5lS88BYvhWTb9o-46">
          <mxGeometry relative="1" as="geometry" />
        </mxCell>
        <mxCell id="gVcf6k5lS88BYvhWTb9o-36" value="&lt;b style=&quot;font-size: 43px;&quot;&gt;FA&lt;/b&gt;" style="whiteSpace=wrap;html=1;aspect=fixed;fillColor=#ffe6cc;strokeColor=#d79b00;strokeWidth=8;" vertex="1" parent="1">
          <mxGeometry x="1644" y="1543" width="120" height="120" as="geometry" />
        </mxCell>
        <mxCell id="gVcf6k5lS88BYvhWTb9o-37" value="&lt;b style=&quot;font-size: 43px;&quot;&gt;FA&lt;/b&gt;" style="whiteSpace=wrap;html=1;aspect=fixed;fillColor=#ffe6cc;strokeColor=#d79b00;strokeWidth=8;" vertex="1" parent="1">
          <mxGeometry x="925.5" y="1946" width="120" height="120" as="geometry" />
        </mxCell>
        <mxCell id="gVcf6k5lS88BYvhWTb9o-38" value="&lt;b style=&quot;font-size: 43px;&quot;&gt;FA&lt;/b&gt;" style="whiteSpace=wrap;html=1;aspect=fixed;fillColor=#ffe6cc;strokeColor=#d79b00;strokeWidth=8;" vertex="1" parent="1">
          <mxGeometry x="1164.5" y="1946" width="120" height="120" as="geometry" />
        </mxCell>
        <mxCell id="gVcf6k5lS88BYvhWTb9o-39" value="&lt;b style=&quot;font-size: 43px;&quot;&gt;FA&lt;/b&gt;" style="whiteSpace=wrap;html=1;aspect=fixed;fillColor=#ffe6cc;strokeColor=#d79b00;strokeWidth=8;" vertex="1" parent="1">
          <mxGeometry x="1404.5" y="1946" width="120" height="120" as="geometry" />
        </mxCell>
        <mxCell id="gVcf6k5lS88BYvhWTb9o-40" style="edgeStyle=orthogonalEdgeStyle;rounded=0;orthogonalLoop=1;jettySize=auto;html=1;exitX=0.25;exitY=1;exitDx=0;exitDy=0;entryX=0.25;entryY=0;entryDx=0;entryDy=0;strokeWidth=4;" edge="1" parent="1" source="gVcf6k5lS88BYvhWTb9o-41" target="gVcf6k5lS88BYvhWTb9o-47">
          <mxGeometry relative="1" as="geometry" />
        </mxCell>
        <mxCell id="gVcf6k5lS88BYvhWTb9o-41" value="&lt;b style=&quot;font-size: 43px;&quot;&gt;FA&lt;/b&gt;" style="whiteSpace=wrap;html=1;aspect=fixed;fillColor=#ffe6cc;strokeColor=#d79b00;strokeWidth=8;" vertex="1" parent="1">
          <mxGeometry x="1884.5" y="1543" width="120" height="120" as="geometry" />
        </mxCell>
        <mxCell id="gVcf6k5lS88BYvhWTb9o-42" style="edgeStyle=orthogonalEdgeStyle;rounded=0;orthogonalLoop=1;jettySize=auto;html=1;exitX=0.25;exitY=1;exitDx=0;exitDy=0;entryX=0.25;entryY=0;entryDx=0;entryDy=0;strokeWidth=4;" edge="1" parent="1" source="gVcf6k5lS88BYvhWTb9o-43" target="gVcf6k5lS88BYvhWTb9o-49">
          <mxGeometry relative="1" as="geometry" />
        </mxCell>
        <mxCell id="gVcf6k5lS88BYvhWTb9o-43" value="&lt;b style=&quot;font-size: 43px;&quot;&gt;FA&lt;/b&gt;" style="whiteSpace=wrap;html=1;aspect=fixed;fillColor=#ffe6cc;strokeColor=#d79b00;strokeWidth=8;" vertex="1" parent="1">
          <mxGeometry x="2123.5" y="1543" width="120" height="120" as="geometry" />
        </mxCell>
        <mxCell id="gVcf6k5lS88BYvhWTb9o-44" style="edgeStyle=orthogonalEdgeStyle;rounded=0;orthogonalLoop=1;jettySize=auto;html=1;exitX=0.5;exitY=1;exitDx=0;exitDy=0;strokeWidth=3;" edge="1" parent="1" source="gVcf6k5lS88BYvhWTb9o-45">
          <mxGeometry relative="1" as="geometry">
            <mxPoint x="2422.9090909090905" y="2560" as="targetPoint" />
          </mxGeometry>
        </mxCell>
        <mxCell id="gVcf6k5lS88BYvhWTb9o-45" value="&lt;b style=&quot;font-size: 43px;&quot;&gt;HA&lt;/b&gt;" style="whiteSpace=wrap;html=1;aspect=fixed;fillColor=#fff2cc;strokeColor=#d6b656;strokeWidth=8;" vertex="1" parent="1">
          <mxGeometry x="2363.5" y="1543" width="120" height="120" as="geometry" />
        </mxCell>
        <mxCell id="gVcf6k5lS88BYvhWTb9o-46" value="&lt;b style=&quot;font-size: 43px;&quot;&gt;FA&lt;/b&gt;" style="whiteSpace=wrap;html=1;aspect=fixed;fillColor=#ffe6cc;strokeColor=#d79b00;strokeWidth=8;" vertex="1" parent="1">
          <mxGeometry x="1644.5" y="1946" width="120" height="120" as="geometry" />
        </mxCell>
        <mxCell id="gVcf6k5lS88BYvhWTb9o-47" value="&lt;b style=&quot;font-size: 43px;&quot;&gt;FA&lt;/b&gt;" style="whiteSpace=wrap;html=1;aspect=fixed;fillColor=#ffe6cc;strokeColor=#d79b00;strokeWidth=8;" vertex="1" parent="1">
          <mxGeometry x="1883.5" y="1946" width="120" height="120" as="geometry" />
        </mxCell>
        <mxCell id="gVcf6k5lS88BYvhWTb9o-48" style="edgeStyle=orthogonalEdgeStyle;rounded=0;orthogonalLoop=1;jettySize=auto;html=1;exitX=0.5;exitY=1;exitDx=0;exitDy=0;strokeWidth=3;" edge="1" parent="1" source="gVcf6k5lS88BYvhWTb9o-49">
          <mxGeometry relative="1" as="geometry">
            <mxPoint x="2183.5555555555557" y="2570.000000000001" as="targetPoint" />
          </mxGeometry>
        </mxCell>
        <mxCell id="gVcf6k5lS88BYvhWTb9o-49" value="&lt;b style=&quot;font-size: 43px;&quot;&gt;HA&lt;/b&gt;" style="whiteSpace=wrap;html=1;aspect=fixed;fillColor=#fff2cc;strokeColor=#d6b656;strokeWidth=8;" vertex="1" parent="1">
          <mxGeometry x="2123.5" y="1946" width="120" height="120" as="geometry" />
        </mxCell>
        <mxCell id="gVcf6k5lS88BYvhWTb9o-50" value="" style="endArrow=none;dashed=1;html=1;rounded=0;entryX=0;entryY=1;entryDx=0;entryDy=0;exitX=1;exitY=0;exitDx=0;exitDy=0;startArrow=classic;startFill=1;strokeWidth=4;" edge="1" parent="1" source="gVcf6k5lS88BYvhWTb9o-38" target="gVcf6k5lS88BYvhWTb9o-34">
          <mxGeometry width="50" height="50" relative="1" as="geometry">
            <mxPoint x="1225" y="1976" as="sourcePoint" />
            <mxPoint x="1275" y="1926" as="targetPoint" />
          </mxGeometry>
        </mxCell>
        <mxCell id="gVcf6k5lS88BYvhWTb9o-51" value="" style="endArrow=none;dashed=1;html=1;rounded=0;entryX=0;entryY=1;entryDx=0;entryDy=0;exitX=1;exitY=0;exitDx=0;exitDy=0;startArrow=classic;startFill=1;strokeWidth=4;" edge="1" parent="1" source="gVcf6k5lS88BYvhWTb9o-39" target="gVcf6k5lS88BYvhWTb9o-36">
          <mxGeometry width="50" height="50" relative="1" as="geometry">
            <mxPoint x="1295" y="1956" as="sourcePoint" />
            <mxPoint x="1414" y="1673" as="targetPoint" />
          </mxGeometry>
        </mxCell>
        <mxCell id="gVcf6k5lS88BYvhWTb9o-52" value="" style="endArrow=none;dashed=1;html=1;rounded=0;entryX=0;entryY=1;entryDx=0;entryDy=0;exitX=1;exitY=0;exitDx=0;exitDy=0;startArrow=classic;startFill=1;strokeWidth=4;" edge="1" parent="1" source="gVcf6k5lS88BYvhWTb9o-46" target="gVcf6k5lS88BYvhWTb9o-41">
          <mxGeometry width="50" height="50" relative="1" as="geometry">
            <mxPoint x="1535" y="1956" as="sourcePoint" />
            <mxPoint x="1654" y="1673" as="targetPoint" />
          </mxGeometry>
        </mxCell>
        <mxCell id="gVcf6k5lS88BYvhWTb9o-53" value="" style="endArrow=none;dashed=1;html=1;rounded=0;entryX=0;entryY=1;entryDx=0;entryDy=0;exitX=1;exitY=0;exitDx=0;exitDy=0;startArrow=classic;startFill=1;strokeWidth=4;" edge="1" parent="1" source="gVcf6k5lS88BYvhWTb9o-47" target="gVcf6k5lS88BYvhWTb9o-43">
          <mxGeometry width="50" height="50" relative="1" as="geometry">
            <mxPoint x="1775" y="1956" as="sourcePoint" />
            <mxPoint x="1895" y="1673" as="targetPoint" />
          </mxGeometry>
        </mxCell>
        <mxCell id="gVcf6k5lS88BYvhWTb9o-54" value="" style="endArrow=none;dashed=1;html=1;rounded=0;entryX=0;entryY=1;entryDx=0;entryDy=0;exitX=1;exitY=0;exitDx=0;exitDy=0;startArrow=classic;startFill=1;strokeWidth=4;" edge="1" parent="1" source="gVcf6k5lS88BYvhWTb9o-49" target="gVcf6k5lS88BYvhWTb9o-45">
          <mxGeometry width="50" height="50" relative="1" as="geometry">
            <mxPoint x="2014" y="1956" as="sourcePoint" />
            <mxPoint x="2134" y="1673" as="targetPoint" />
          </mxGeometry>
        </mxCell>
        <mxCell id="gVcf6k5lS88BYvhWTb9o-55" value="" style="endArrow=none;dashed=1;html=1;rounded=0;entryX=0;entryY=0.917;entryDx=0;entryDy=0;exitX=1;exitY=0;exitDx=0;exitDy=0;startArrow=classic;startFill=1;strokeWidth=4;entryPerimeter=0;" edge="1" parent="1" source="gVcf6k5lS88BYvhWTb9o-32" target="gVcf6k5lS88BYvhWTb9o-9">
          <mxGeometry width="50" height="50" relative="1" as="geometry">
            <mxPoint x="1286.5" y="1543" as="sourcePoint" />
            <mxPoint x="1405.5" y="1260" as="targetPoint" />
          </mxGeometry>
        </mxCell>
        <mxCell id="gVcf6k5lS88BYvhWTb9o-56" value="" style="endArrow=none;dashed=1;html=1;rounded=0;entryX=0;entryY=1;entryDx=0;entryDy=0;exitX=1;exitY=0;exitDx=0;exitDy=0;startArrow=classic;startFill=1;strokeWidth=4;" edge="1" parent="1" source="gVcf6k5lS88BYvhWTb9o-34" target="gVcf6k5lS88BYvhWTb9o-11">
          <mxGeometry width="50" height="50" relative="1" as="geometry">
            <mxPoint x="1585" y="1603" as="sourcePoint" />
            <mxPoint x="1704" y="1320" as="targetPoint" />
          </mxGeometry>
        </mxCell>
        <mxCell id="gVcf6k5lS88BYvhWTb9o-57" value="" style="endArrow=none;dashed=1;html=1;rounded=0;entryX=0;entryY=1;entryDx=0;entryDy=0;exitX=1;exitY=0;exitDx=0;exitDy=0;startArrow=classic;startFill=1;strokeWidth=4;" edge="1" parent="1" source="gVcf6k5lS88BYvhWTb9o-36" target="gVcf6k5lS88BYvhWTb9o-13">
          <mxGeometry width="50" height="50" relative="1" as="geometry">
            <mxPoint x="1727" y="1573" as="sourcePoint" />
            <mxPoint x="1848" y="1290" as="targetPoint" />
          </mxGeometry>
        </mxCell>
        <mxCell id="gVcf6k5lS88BYvhWTb9o-58" value="" style="endArrow=none;dashed=1;html=1;rounded=0;entryX=0;entryY=1;entryDx=0;entryDy=0;exitX=1;exitY=0;exitDx=0;exitDy=0;startArrow=classic;startFill=1;strokeWidth=4;" edge="1" parent="1" source="gVcf6k5lS88BYvhWTb9o-41" target="gVcf6k5lS88BYvhWTb9o-21">
          <mxGeometry width="50" height="50" relative="1" as="geometry">
            <mxPoint x="1898" y="1583" as="sourcePoint" />
            <mxPoint x="2019" y="1300" as="targetPoint" />
          </mxGeometry>
        </mxCell>
        <mxCell id="gVcf6k5lS88BYvhWTb9o-59" value="" style="endArrow=none;dashed=1;html=1;rounded=0;entryX=0;entryY=1;entryDx=0;entryDy=0;exitX=1;exitY=0;exitDx=0;exitDy=0;startArrow=classic;startFill=1;strokeWidth=4;" edge="1" parent="1" source="gVcf6k5lS88BYvhWTb9o-43" target="gVcf6k5lS88BYvhWTb9o-23">
          <mxGeometry width="50" height="50" relative="1" as="geometry">
            <mxPoint x="2218" y="1573" as="sourcePoint" />
            <mxPoint x="2338" y="1290" as="targetPoint" />
          </mxGeometry>
        </mxCell>
        <mxCell id="gVcf6k5lS88BYvhWTb9o-60" value="" style="endArrow=none;dashed=1;html=1;rounded=0;entryX=0;entryY=1;entryDx=0;entryDy=0;exitX=1;exitY=0;exitDx=0;exitDy=0;startArrow=classic;startFill=1;strokeWidth=4;" edge="1" parent="1" source="gVcf6k5lS88BYvhWTb9o-45" target="gVcf6k5lS88BYvhWTb9o-25">
          <mxGeometry width="50" height="50" relative="1" as="geometry">
            <mxPoint x="2409" y="1573" as="sourcePoint" />
            <mxPoint x="2529" y="1290" as="targetPoint" />
          </mxGeometry>
        </mxCell>
        <mxCell id="gVcf6k5lS88BYvhWTb9o-61" value="" style="endArrow=none;dashed=1;html=1;rounded=0;entryX=0;entryY=1;entryDx=0;entryDy=0;exitX=1;exitY=0;exitDx=0;exitDy=0;startArrow=classic;startFill=1;strokeWidth=4;" edge="1" parent="1" source="gVcf6k5lS88BYvhWTb9o-37" target="gVcf6k5lS88BYvhWTb9o-32">
          <mxGeometry width="50" height="50" relative="1" as="geometry">
            <mxPoint x="1295" y="1956" as="sourcePoint" />
            <mxPoint x="1414" y="1673" as="targetPoint" />
          </mxGeometry>
        </mxCell>
        <mxCell id="gVcf6k5lS88BYvhWTb9o-62" value="" style="endArrow=none;dashed=1;html=1;rounded=0;entryX=0;entryY=1;entryDx=0;entryDy=0;exitX=1;exitY=0;exitDx=0;exitDy=0;startArrow=classic;startFill=1;strokeWidth=4;" edge="1" parent="1" source="gVcf6k5lS88BYvhWTb9o-9" target="gVcf6k5lS88BYvhWTb9o-3">
          <mxGeometry width="50" height="50" relative="1" as="geometry">
            <mxPoint x="1295" y="1553" as="sourcePoint" />
            <mxPoint x="1416" y="1260" as="targetPoint" />
          </mxGeometry>
        </mxCell>
        <mxCell id="gVcf6k5lS88BYvhWTb9o-63" style="edgeStyle=orthogonalEdgeStyle;rounded=0;orthogonalLoop=1;jettySize=auto;html=1;exitX=0;exitY=0.5;exitDx=0;exitDy=0;strokeWidth=3;" edge="1" parent="1" source="gVcf6k5lS88BYvhWTb9o-65">
          <mxGeometry relative="1" as="geometry">
            <mxPoint x="565" y="2560.000000000001" as="targetPoint" />
          </mxGeometry>
        </mxCell>
        <mxCell id="gVcf6k5lS88BYvhWTb9o-64" style="edgeStyle=orthogonalEdgeStyle;rounded=0;orthogonalLoop=1;jettySize=auto;html=1;exitX=0.5;exitY=1;exitDx=0;exitDy=0;strokeWidth=3;" edge="1" parent="1" source="gVcf6k5lS88BYvhWTb9o-65">
          <mxGeometry relative="1" as="geometry">
            <mxPoint x="751.3333333333333" y="2560.000000000001" as="targetPoint" />
          </mxGeometry>
        </mxCell>
        <mxCell id="gVcf6k5lS88BYvhWTb9o-65" value="&lt;b style=&quot;font-size: 43px;&quot;&gt;FA&lt;/b&gt;" style="whiteSpace=wrap;html=1;aspect=fixed;fillColor=#ffe6cc;strokeColor=#d79b00;strokeWidth=8;" vertex="1" parent="1">
          <mxGeometry x="691.5" y="2348" width="120" height="120" as="geometry" />
        </mxCell>
        <mxCell id="gVcf6k5lS88BYvhWTb9o-66" style="edgeStyle=orthogonalEdgeStyle;rounded=0;orthogonalLoop=1;jettySize=auto;html=1;exitX=0;exitY=0.5;exitDx=0;exitDy=0;entryX=1;entryY=0.5;entryDx=0;entryDy=0;strokeWidth=4;" edge="1" parent="1" source="gVcf6k5lS88BYvhWTb9o-68" target="gVcf6k5lS88BYvhWTb9o-65">
          <mxGeometry relative="1" as="geometry" />
        </mxCell>
        <mxCell id="gVcf6k5lS88BYvhWTb9o-67" style="edgeStyle=orthogonalEdgeStyle;rounded=0;orthogonalLoop=1;jettySize=auto;html=1;exitX=0.5;exitY=1;exitDx=0;exitDy=0;strokeWidth=3;" edge="1" parent="1" source="gVcf6k5lS88BYvhWTb9o-68">
          <mxGeometry relative="1" as="geometry">
            <mxPoint x="990.2222222222222" y="2560.000000000001" as="targetPoint" />
          </mxGeometry>
        </mxCell>
        <mxCell id="gVcf6k5lS88BYvhWTb9o-68" value="&lt;b style=&quot;font-size: 43px;&quot;&gt;FA&lt;/b&gt;" style="whiteSpace=wrap;html=1;aspect=fixed;fillColor=#ffe6cc;strokeColor=#d79b00;strokeWidth=8;" vertex="1" parent="1">
          <mxGeometry x="930.5" y="2348" width="120" height="120" as="geometry" />
        </mxCell>
        <mxCell id="gVcf6k5lS88BYvhWTb9o-69" style="edgeStyle=orthogonalEdgeStyle;rounded=0;orthogonalLoop=1;jettySize=auto;html=1;exitX=0;exitY=0.5;exitDx=0;exitDy=0;entryX=1;entryY=0.5;entryDx=0;entryDy=0;strokeWidth=3;" edge="1" parent="1" source="gVcf6k5lS88BYvhWTb9o-71" target="gVcf6k5lS88BYvhWTb9o-68">
          <mxGeometry relative="1" as="geometry" />
        </mxCell>
        <mxCell id="gVcf6k5lS88BYvhWTb9o-70" style="edgeStyle=orthogonalEdgeStyle;rounded=0;orthogonalLoop=1;jettySize=auto;html=1;exitX=0.5;exitY=1;exitDx=0;exitDy=0;strokeWidth=3;" edge="1" parent="1" source="gVcf6k5lS88BYvhWTb9o-71">
          <mxGeometry relative="1" as="geometry">
            <mxPoint x="1224.6666666666665" y="2570.000000000001" as="targetPoint" />
          </mxGeometry>
        </mxCell>
        <mxCell id="gVcf6k5lS88BYvhWTb9o-71" value="&lt;b style=&quot;font-size: 43px;&quot;&gt;FA&lt;/b&gt;" style="whiteSpace=wrap;html=1;aspect=fixed;fillColor=#ffe6cc;strokeColor=#d79b00;strokeWidth=8;" vertex="1" parent="1">
          <mxGeometry x="1164.5" y="2348" width="120" height="120" as="geometry" />
        </mxCell>
        <mxCell id="gVcf6k5lS88BYvhWTb9o-72" style="edgeStyle=orthogonalEdgeStyle;rounded=0;orthogonalLoop=1;jettySize=auto;html=1;exitX=0;exitY=0.5;exitDx=0;exitDy=0;entryX=1;entryY=0.5;entryDx=0;entryDy=0;strokeWidth=3;" edge="1" parent="1" source="gVcf6k5lS88BYvhWTb9o-74" target="gVcf6k5lS88BYvhWTb9o-71">
          <mxGeometry relative="1" as="geometry" />
        </mxCell>
        <mxCell id="gVcf6k5lS88BYvhWTb9o-73" style="edgeStyle=orthogonalEdgeStyle;rounded=0;orthogonalLoop=1;jettySize=auto;html=1;exitX=0.5;exitY=1;exitDx=0;exitDy=0;strokeWidth=3;" edge="1" parent="1" source="gVcf6k5lS88BYvhWTb9o-74">
          <mxGeometry relative="1" as="geometry">
            <mxPoint x="1464.6666666666665" y="2560.000000000001" as="targetPoint" />
          </mxGeometry>
        </mxCell>
        <mxCell id="gVcf6k5lS88BYvhWTb9o-74" value="&lt;b style=&quot;font-size: 43px;&quot;&gt;FA&lt;/b&gt;" style="whiteSpace=wrap;html=1;aspect=fixed;fillColor=#ffe6cc;strokeColor=#d79b00;strokeWidth=8;" vertex="1" parent="1">
          <mxGeometry x="1405" y="2348" width="120" height="120" as="geometry" />
        </mxCell>
        <mxCell id="gVcf6k5lS88BYvhWTb9o-75" style="edgeStyle=orthogonalEdgeStyle;rounded=0;orthogonalLoop=1;jettySize=auto;html=1;exitX=0;exitY=0.5;exitDx=0;exitDy=0;entryX=1;entryY=0.5;entryDx=0;entryDy=0;strokeWidth=3;" edge="1" parent="1" source="gVcf6k5lS88BYvhWTb9o-77" target="gVcf6k5lS88BYvhWTb9o-74">
          <mxGeometry relative="1" as="geometry" />
        </mxCell>
        <mxCell id="gVcf6k5lS88BYvhWTb9o-76" style="edgeStyle=orthogonalEdgeStyle;rounded=0;orthogonalLoop=1;jettySize=auto;html=1;exitX=0.5;exitY=1;exitDx=0;exitDy=0;strokeWidth=3;" edge="1" parent="1" source="gVcf6k5lS88BYvhWTb9o-77">
          <mxGeometry relative="1" as="geometry">
            <mxPoint x="1705.7777777777778" y="2570.000000000001" as="targetPoint" />
          </mxGeometry>
        </mxCell>
        <mxCell id="gVcf6k5lS88BYvhWTb9o-77" value="&lt;b style=&quot;font-size: 43px;&quot;&gt;FA&lt;/b&gt;" style="whiteSpace=wrap;html=1;aspect=fixed;fillColor=#ffe6cc;strokeColor=#d79b00;strokeWidth=8;" vertex="1" parent="1">
          <mxGeometry x="1646" y="2348" width="120" height="120" as="geometry" />
        </mxCell>
        <mxCell id="gVcf6k5lS88BYvhWTb9o-78" style="edgeStyle=orthogonalEdgeStyle;rounded=0;orthogonalLoop=1;jettySize=auto;html=1;exitX=0;exitY=0.5;exitDx=0;exitDy=0;entryX=1;entryY=0.5;entryDx=0;entryDy=0;strokeWidth=3;" edge="1" parent="1" source="gVcf6k5lS88BYvhWTb9o-80" target="gVcf6k5lS88BYvhWTb9o-77">
          <mxGeometry relative="1" as="geometry" />
        </mxCell>
        <mxCell id="gVcf6k5lS88BYvhWTb9o-79" style="edgeStyle=orthogonalEdgeStyle;rounded=0;orthogonalLoop=1;jettySize=auto;html=1;exitX=0.5;exitY=1;exitDx=0;exitDy=0;strokeWidth=3;" edge="1" parent="1" source="gVcf6k5lS88BYvhWTb9o-80">
          <mxGeometry relative="1" as="geometry">
            <mxPoint x="1944.6666666666665" y="2580.000000000001" as="targetPoint" />
          </mxGeometry>
        </mxCell>
        <mxCell id="gVcf6k5lS88BYvhWTb9o-80" value="&lt;b style=&quot;font-size: 43px;&quot;&gt;HA&lt;/b&gt;" style="whiteSpace=wrap;html=1;aspect=fixed;fillColor=#fff2cc;strokeColor=#d6b656;strokeWidth=8;" vertex="1" parent="1">
          <mxGeometry x="1885" y="2348" width="120" height="120" as="geometry" />
        </mxCell>
        <mxCell id="gVcf6k5lS88BYvhWTb9o-81" value="" style="endArrow=none;dashed=1;html=1;rounded=0;startArrow=classic;startFill=1;strokeWidth=4;" edge="1" parent="1">
          <mxGeometry width="50" height="50" relative="1" as="geometry">
            <mxPoint x="810" y="2349" as="sourcePoint" />
            <mxPoint x="925" y="2060" as="targetPoint" />
          </mxGeometry>
        </mxCell>
        <mxCell id="gVcf6k5lS88BYvhWTb9o-82" value="" style="endArrow=none;dashed=1;html=1;rounded=0;startArrow=classic;startFill=1;strokeWidth=4;entryX=0;entryY=1;entryDx=0;entryDy=0;exitX=1;exitY=0;exitDx=0;exitDy=0;" edge="1" parent="1" source="gVcf6k5lS88BYvhWTb9o-68" target="gVcf6k5lS88BYvhWTb9o-38">
          <mxGeometry width="50" height="50" relative="1" as="geometry">
            <mxPoint x="820" y="2359" as="sourcePoint" />
            <mxPoint x="935" y="2070" as="targetPoint" />
          </mxGeometry>
        </mxCell>
        <mxCell id="gVcf6k5lS88BYvhWTb9o-83" value="" style="endArrow=none;dashed=1;html=1;rounded=0;startArrow=classic;startFill=1;strokeWidth=4;entryX=0;entryY=1;entryDx=0;entryDy=0;exitX=1;exitY=0;exitDx=0;exitDy=0;" edge="1" parent="1" source="gVcf6k5lS88BYvhWTb9o-71" target="gVcf6k5lS88BYvhWTb9o-39">
          <mxGeometry width="50" height="50" relative="1" as="geometry">
            <mxPoint x="1061" y="2358" as="sourcePoint" />
            <mxPoint x="1175" y="2076" as="targetPoint" />
          </mxGeometry>
        </mxCell>
        <mxCell id="gVcf6k5lS88BYvhWTb9o-84" value="" style="endArrow=none;dashed=1;html=1;rounded=0;startArrow=classic;startFill=1;strokeWidth=4;entryX=0;entryY=1;entryDx=0;entryDy=0;exitX=1;exitY=0;exitDx=0;exitDy=0;" edge="1" parent="1" source="gVcf6k5lS88BYvhWTb9o-74" target="gVcf6k5lS88BYvhWTb9o-46">
          <mxGeometry width="50" height="50" relative="1" as="geometry">
            <mxPoint x="1301" y="2358" as="sourcePoint" />
            <mxPoint x="1415" y="2076" as="targetPoint" />
          </mxGeometry>
        </mxCell>
        <mxCell id="gVcf6k5lS88BYvhWTb9o-85" value="" style="endArrow=none;dashed=1;html=1;rounded=0;startArrow=classic;startFill=1;strokeWidth=4;entryX=0;entryY=1;entryDx=0;entryDy=0;exitX=1;exitY=0;exitDx=0;exitDy=0;" edge="1" parent="1" source="gVcf6k5lS88BYvhWTb9o-77" target="gVcf6k5lS88BYvhWTb9o-47">
          <mxGeometry width="50" height="50" relative="1" as="geometry">
            <mxPoint x="1541" y="2358" as="sourcePoint" />
            <mxPoint x="1655" y="2076" as="targetPoint" />
          </mxGeometry>
        </mxCell>
        <mxCell id="gVcf6k5lS88BYvhWTb9o-86" value="" style="endArrow=none;dashed=1;html=1;rounded=0;startArrow=classic;startFill=1;strokeWidth=4;entryX=0;entryY=1;entryDx=0;entryDy=0;exitX=1;exitY=0;exitDx=0;exitDy=0;" edge="1" parent="1" source="gVcf6k5lS88BYvhWTb9o-80" target="gVcf6k5lS88BYvhWTb9o-49">
          <mxGeometry width="50" height="50" relative="1" as="geometry">
            <mxPoint x="1780" y="2358" as="sourcePoint" />
            <mxPoint x="1894" y="2076" as="targetPoint" />
          </mxGeometry>
        </mxCell>
        <mxCell id="gVcf6k5lS88BYvhWTb9o-87" style="edgeStyle=orthogonalEdgeStyle;rounded=0;orthogonalLoop=1;jettySize=auto;html=1;exitX=0.25;exitY=1;exitDx=0;exitDy=0;entryX=0.199;entryY=-0.006;entryDx=0;entryDy=0;strokeWidth=4;entryPerimeter=0;" edge="1" parent="1" source="gVcf6k5lS88BYvhWTb9o-37" target="gVcf6k5lS88BYvhWTb9o-68">
          <mxGeometry relative="1" as="geometry">
            <mxPoint x="1205" y="1673" as="sourcePoint" />
            <mxPoint x="1205" y="1956" as="targetPoint" />
          </mxGeometry>
        </mxCell>
        <mxCell id="gVcf6k5lS88BYvhWTb9o-88" style="edgeStyle=orthogonalEdgeStyle;rounded=0;orthogonalLoop=1;jettySize=auto;html=1;exitX=0.25;exitY=1;exitDx=0;exitDy=0;entryX=0.25;entryY=0;entryDx=0;entryDy=0;strokeWidth=4;" edge="1" parent="1" source="gVcf6k5lS88BYvhWTb9o-38" target="gVcf6k5lS88BYvhWTb9o-71">
          <mxGeometry relative="1" as="geometry">
            <mxPoint x="966" y="2076" as="sourcePoint" />
            <mxPoint x="964" y="2357" as="targetPoint" />
          </mxGeometry>
        </mxCell>
        <mxCell id="gVcf6k5lS88BYvhWTb9o-89" style="edgeStyle=orthogonalEdgeStyle;rounded=0;orthogonalLoop=1;jettySize=auto;html=1;exitX=0.25;exitY=1;exitDx=0;exitDy=0;entryX=0.25;entryY=0;entryDx=0;entryDy=0;strokeWidth=4;" edge="1" parent="1" source="gVcf6k5lS88BYvhWTb9o-39" target="gVcf6k5lS88BYvhWTb9o-74">
          <mxGeometry relative="1" as="geometry">
            <mxPoint x="1205" y="2076" as="sourcePoint" />
            <mxPoint x="1207" y="2358" as="targetPoint" />
          </mxGeometry>
        </mxCell>
        <mxCell id="gVcf6k5lS88BYvhWTb9o-90" style="edgeStyle=orthogonalEdgeStyle;rounded=0;orthogonalLoop=1;jettySize=auto;html=1;exitX=0.25;exitY=1;exitDx=0;exitDy=0;entryX=0.25;entryY=0;entryDx=0;entryDy=0;strokeWidth=4;" edge="1" parent="1" source="gVcf6k5lS88BYvhWTb9o-46" target="gVcf6k5lS88BYvhWTb9o-77">
          <mxGeometry relative="1" as="geometry">
            <mxPoint x="1445" y="2076" as="sourcePoint" />
            <mxPoint x="1445" y="2358" as="targetPoint" />
          </mxGeometry>
        </mxCell>
        <mxCell id="gVcf6k5lS88BYvhWTb9o-91" style="edgeStyle=orthogonalEdgeStyle;rounded=0;orthogonalLoop=1;jettySize=auto;html=1;exitX=0.25;exitY=1;exitDx=0;exitDy=0;entryX=0.25;entryY=0;entryDx=0;entryDy=0;strokeWidth=4;" edge="1" parent="1" source="gVcf6k5lS88BYvhWTb9o-47" target="gVcf6k5lS88BYvhWTb9o-80">
          <mxGeometry relative="1" as="geometry">
            <mxPoint x="1685" y="2076" as="sourcePoint" />
            <mxPoint x="1686" y="2358" as="targetPoint" />
          </mxGeometry>
        </mxCell>
        <mxCell id="gVcf6k5lS88BYvhWTb9o-92" style="edgeStyle=orthogonalEdgeStyle;rounded=0;orthogonalLoop=1;jettySize=auto;html=1;entryX=0.25;entryY=0;entryDx=0;entryDy=0;fontSize=26;strokeWidth=4;" edge="1" parent="1" source="gVcf6k5lS88BYvhWTb9o-93" target="gVcf6k5lS88BYvhWTb9o-3">
          <mxGeometry relative="1" as="geometry" />
        </mxCell>
        <mxCell id="gVcf6k5lS88BYvhWTb9o-93" value="X5Y1" style="text;html=1;align=center;verticalAlign=middle;whiteSpace=wrap;rounded=0;fontSize=54;fontColor=#009900;" vertex="1" parent="1">
          <mxGeometry x="1646" y="517" width="60" height="30" as="geometry" />
        </mxCell>
        <mxCell id="gVcf6k5lS88BYvhWTb9o-94" style="edgeStyle=orthogonalEdgeStyle;rounded=0;orthogonalLoop=1;jettySize=auto;html=1;entryX=0.25;entryY=0;entryDx=0;entryDy=0;fontSize=26;strokeWidth=4;" edge="1" parent="1" source="gVcf6k5lS88BYvhWTb9o-95">
          <mxGeometry relative="1" as="geometry">
            <mxPoint x="1915" y="737" as="targetPoint" />
          </mxGeometry>
        </mxCell>
        <mxCell id="gVcf6k5lS88BYvhWTb9o-95" value="X5Y0" style="text;html=1;align=center;verticalAlign=middle;whiteSpace=wrap;rounded=0;fontSize=54;fontColor=#FF8000;" vertex="1" parent="1">
          <mxGeometry x="1885" y="420" width="60" height="30" as="geometry" />
        </mxCell>
        <mxCell id="gVcf6k5lS88BYvhWTb9o-96" style="edgeStyle=orthogonalEdgeStyle;rounded=0;orthogonalLoop=1;jettySize=auto;html=1;entryX=0.25;entryY=0;entryDx=0;entryDy=0;fontSize=26;strokeWidth=4;" edge="1" parent="1" source="gVcf6k5lS88BYvhWTb9o-97">
          <mxGeometry relative="1" as="geometry">
            <mxPoint x="2154.5" y="737" as="targetPoint" />
          </mxGeometry>
        </mxCell>
        <mxCell id="gVcf6k5lS88BYvhWTb9o-97" value="X4Y0" style="text;html=1;align=center;verticalAlign=middle;whiteSpace=wrap;rounded=0;fontSize=54;fontColor=#FF8000;" vertex="1" parent="1">
          <mxGeometry x="2124.5" y="420" width="60" height="30" as="geometry" />
        </mxCell>
        <mxCell id="gVcf6k5lS88BYvhWTb9o-98" style="edgeStyle=orthogonalEdgeStyle;rounded=0;orthogonalLoop=1;jettySize=auto;html=1;entryX=0.25;entryY=0;entryDx=0;entryDy=0;fontSize=26;strokeWidth=4;" edge="1" parent="1" source="gVcf6k5lS88BYvhWTb9o-99">
          <mxGeometry relative="1" as="geometry">
            <mxPoint x="2394.5" y="737" as="targetPoint" />
          </mxGeometry>
        </mxCell>
        <mxCell id="gVcf6k5lS88BYvhWTb9o-99" value="X3Y0" style="text;html=1;align=center;verticalAlign=middle;whiteSpace=wrap;rounded=0;fontSize=54;fontColor=#FF8000;" vertex="1" parent="1">
          <mxGeometry x="2364.5" y="420" width="60" height="30" as="geometry" />
        </mxCell>
        <mxCell id="gVcf6k5lS88BYvhWTb9o-100" style="edgeStyle=orthogonalEdgeStyle;rounded=0;orthogonalLoop=1;jettySize=auto;html=1;entryX=0.25;entryY=0;entryDx=0;entryDy=0;fontSize=26;strokeWidth=4;" edge="1" parent="1" source="gVcf6k5lS88BYvhWTb9o-101">
          <mxGeometry relative="1" as="geometry">
            <mxPoint x="2628" y="737" as="targetPoint" />
          </mxGeometry>
        </mxCell>
        <mxCell id="gVcf6k5lS88BYvhWTb9o-101" value="X2Y0" style="text;html=1;align=center;verticalAlign=middle;whiteSpace=wrap;rounded=0;fontSize=54;fontColor=#FF8000;" vertex="1" parent="1">
          <mxGeometry x="2598" y="420" width="60" height="30" as="geometry" />
        </mxCell>
        <mxCell id="gVcf6k5lS88BYvhWTb9o-102" style="edgeStyle=orthogonalEdgeStyle;rounded=0;orthogonalLoop=1;jettySize=auto;html=1;entryX=0.25;entryY=0;entryDx=0;entryDy=0;fontSize=26;strokeWidth=4;" edge="1" parent="1" source="gVcf6k5lS88BYvhWTb9o-103">
          <mxGeometry relative="1" as="geometry">
            <mxPoint x="2869" y="737" as="targetPoint" />
          </mxGeometry>
        </mxCell>
        <mxCell id="gVcf6k5lS88BYvhWTb9o-103" value="X1Y0" style="text;html=1;align=center;verticalAlign=middle;whiteSpace=wrap;rounded=0;fontSize=54;fontColor=#FF8000;" vertex="1" parent="1">
          <mxGeometry x="2839" y="420" width="60" height="30" as="geometry" />
        </mxCell>
        <mxCell id="gVcf6k5lS88BYvhWTb9o-104" style="edgeStyle=orthogonalEdgeStyle;rounded=0;orthogonalLoop=1;jettySize=auto;html=1;fontSize=26;strokeWidth=4;" edge="1" parent="1" source="gVcf6k5lS88BYvhWTb9o-105">
          <mxGeometry relative="1" as="geometry">
            <mxPoint x="3126.4285714285716" y="2550" as="targetPoint" />
          </mxGeometry>
        </mxCell>
        <mxCell id="gVcf6k5lS88BYvhWTb9o-105" value="X0Y0" style="text;html=1;align=center;verticalAlign=middle;whiteSpace=wrap;rounded=0;fontSize=54;fontColor=#FF8000;" vertex="1" parent="1">
          <mxGeometry x="3095" y="420" width="60" height="30" as="geometry" />
        </mxCell>
        <mxCell id="gVcf6k5lS88BYvhWTb9o-106" value="X4Y2" style="text;html=1;align=center;verticalAlign=middle;whiteSpace=wrap;rounded=0;fontSize=54;fontColor=#0066CC;" vertex="1" parent="1">
          <mxGeometry x="1719" y="610" width="60" height="30" as="geometry" />
        </mxCell>
        <mxCell id="gVcf6k5lS88BYvhWTb9o-107" style="edgeStyle=orthogonalEdgeStyle;rounded=0;orthogonalLoop=1;jettySize=auto;html=1;entryX=0.871;entryY=0.002;entryDx=0;entryDy=0;fontSize=26;strokeWidth=4;exitX=0.5;exitY=1;exitDx=0;exitDy=0;entryPerimeter=0;" edge="1" parent="1" source="gVcf6k5lS88BYvhWTb9o-106" target="gVcf6k5lS88BYvhWTb9o-3">
          <mxGeometry relative="1" as="geometry">
            <mxPoint x="1686" y="580" as="sourcePoint" />
            <mxPoint x="1685" y="747" as="targetPoint" />
          </mxGeometry>
        </mxCell>
        <mxCell id="gVcf6k5lS88BYvhWTb9o-108" style="edgeStyle=orthogonalEdgeStyle;rounded=0;orthogonalLoop=1;jettySize=auto;html=1;entryX=0.25;entryY=0;entryDx=0;entryDy=0;fontSize=26;strokeWidth=4;" edge="1" parent="1">
          <mxGeometry relative="1" as="geometry">
            <mxPoint x="1948" y="570" as="sourcePoint" />
            <mxPoint x="1947" y="737" as="targetPoint" />
            <Array as="points">
              <mxPoint x="1948" y="654" />
              <mxPoint x="1947" y="654" />
            </Array>
          </mxGeometry>
        </mxCell>
        <mxCell id="gVcf6k5lS88BYvhWTb9o-109" value="X4Y1" style="text;html=1;align=center;verticalAlign=middle;whiteSpace=wrap;rounded=0;fontSize=54;fontColor=#009900;" vertex="1" parent="1">
          <mxGeometry x="1959" y="517" width="60" height="30" as="geometry" />
        </mxCell>
        <mxCell id="gVcf6k5lS88BYvhWTb9o-110" value="X3Y2" style="text;html=1;align=center;verticalAlign=middle;whiteSpace=wrap;rounded=0;fontSize=54;fontColor=#0066CC;" vertex="1" parent="1">
          <mxGeometry x="1999" y="610" width="60" height="30" as="geometry" />
        </mxCell>
        <mxCell id="gVcf6k5lS88BYvhWTb9o-111" style="edgeStyle=orthogonalEdgeStyle;rounded=0;orthogonalLoop=1;jettySize=auto;html=1;entryX=0.25;entryY=0;entryDx=0;entryDy=0;fontSize=26;strokeWidth=4;" edge="1" parent="1">
          <mxGeometry relative="1" as="geometry">
            <mxPoint x="1987" y="654" as="sourcePoint" />
            <mxPoint x="1987" y="737" as="targetPoint" />
            <Array as="points">
              <mxPoint x="1988" y="654" />
              <mxPoint x="1987" y="654" />
            </Array>
          </mxGeometry>
        </mxCell>
        <mxCell id="gVcf6k5lS88BYvhWTb9o-112" style="edgeStyle=orthogonalEdgeStyle;rounded=0;orthogonalLoop=1;jettySize=auto;html=1;entryX=0.25;entryY=0;entryDx=0;entryDy=0;fontSize=26;strokeWidth=4;" edge="1" parent="1">
          <mxGeometry relative="1" as="geometry">
            <mxPoint x="2194" y="570" as="sourcePoint" />
            <mxPoint x="2193" y="737" as="targetPoint" />
            <Array as="points">
              <mxPoint x="2194" y="654" />
              <mxPoint x="2193" y="654" />
            </Array>
          </mxGeometry>
        </mxCell>
        <mxCell id="gVcf6k5lS88BYvhWTb9o-113" value="X3Y1" style="text;html=1;align=center;verticalAlign=middle;whiteSpace=wrap;rounded=0;fontSize=54;fontColor=#009900;" vertex="1" parent="1">
          <mxGeometry x="2205" y="517" width="60" height="30" as="geometry" />
        </mxCell>
        <mxCell id="gVcf6k5lS88BYvhWTb9o-114" value="X2Y2" style="text;html=1;align=center;verticalAlign=middle;whiteSpace=wrap;rounded=0;fontSize=54;fontColor=#0066CC;" vertex="1" parent="1">
          <mxGeometry x="2245" y="610" width="60" height="30" as="geometry" />
        </mxCell>
        <mxCell id="gVcf6k5lS88BYvhWTb9o-115" style="edgeStyle=orthogonalEdgeStyle;rounded=0;orthogonalLoop=1;jettySize=auto;html=1;entryX=0.25;entryY=0;entryDx=0;entryDy=0;fontSize=26;strokeWidth=4;" edge="1" parent="1">
          <mxGeometry relative="1" as="geometry">
            <mxPoint x="2233" y="654" as="sourcePoint" />
            <mxPoint x="2233" y="737" as="targetPoint" />
            <Array as="points">
              <mxPoint x="2234" y="654" />
              <mxPoint x="2233" y="654" />
            </Array>
          </mxGeometry>
        </mxCell>
        <mxCell id="gVcf6k5lS88BYvhWTb9o-116" style="edgeStyle=orthogonalEdgeStyle;rounded=0;orthogonalLoop=1;jettySize=auto;html=1;entryX=0.25;entryY=0;entryDx=0;entryDy=0;fontSize=26;strokeWidth=4;" edge="1" parent="1">
          <mxGeometry relative="1" as="geometry">
            <mxPoint x="2438" y="563" as="sourcePoint" />
            <mxPoint x="2437" y="730" as="targetPoint" />
            <Array as="points">
              <mxPoint x="2438" y="647" />
              <mxPoint x="2437" y="647" />
            </Array>
          </mxGeometry>
        </mxCell>
        <mxCell id="gVcf6k5lS88BYvhWTb9o-117" value="X2Y1" style="text;html=1;align=center;verticalAlign=middle;whiteSpace=wrap;rounded=0;fontSize=54;fontColor=#009900;" vertex="1" parent="1">
          <mxGeometry x="2449" y="510" width="60" height="30" as="geometry" />
        </mxCell>
        <mxCell id="gVcf6k5lS88BYvhWTb9o-118" value="X1Y2" style="text;html=1;align=center;verticalAlign=middle;whiteSpace=wrap;rounded=0;fontSize=54;fontColor=#0066CC;" vertex="1" parent="1">
          <mxGeometry x="2489" y="603" width="60" height="30" as="geometry" />
        </mxCell>
        <mxCell id="gVcf6k5lS88BYvhWTb9o-119" style="edgeStyle=orthogonalEdgeStyle;rounded=0;orthogonalLoop=1;jettySize=auto;html=1;entryX=0.25;entryY=0;entryDx=0;entryDy=0;fontSize=26;strokeWidth=4;" edge="1" parent="1">
          <mxGeometry relative="1" as="geometry">
            <mxPoint x="2477" y="647" as="sourcePoint" />
            <mxPoint x="2477" y="730" as="targetPoint" />
            <Array as="points">
              <mxPoint x="2478" y="647" />
              <mxPoint x="2477" y="647" />
            </Array>
          </mxGeometry>
        </mxCell>
        <mxCell id="gVcf6k5lS88BYvhWTb9o-120" style="edgeStyle=orthogonalEdgeStyle;rounded=0;orthogonalLoop=1;jettySize=auto;html=1;entryX=0.25;entryY=0;entryDx=0;entryDy=0;fontSize=26;strokeWidth=4;" edge="1" parent="1">
          <mxGeometry relative="1" as="geometry">
            <mxPoint x="2668" y="570" as="sourcePoint" />
            <mxPoint x="2667" y="737" as="targetPoint" />
            <Array as="points">
              <mxPoint x="2668" y="654" />
              <mxPoint x="2667" y="654" />
            </Array>
          </mxGeometry>
        </mxCell>
        <mxCell id="gVcf6k5lS88BYvhWTb9o-121" value="X1Y1" style="text;html=1;align=center;verticalAlign=middle;whiteSpace=wrap;rounded=0;fontSize=54;fontColor=#009900;" vertex="1" parent="1">
          <mxGeometry x="2679" y="517" width="60" height="30" as="geometry" />
        </mxCell>
        <mxCell id="gVcf6k5lS88BYvhWTb9o-122" value="X0Y2" style="text;html=1;align=center;verticalAlign=middle;whiteSpace=wrap;rounded=0;fontSize=54;fontColor=#0066CC;" vertex="1" parent="1">
          <mxGeometry x="2719" y="610" width="60" height="30" as="geometry" />
        </mxCell>
        <mxCell id="gVcf6k5lS88BYvhWTb9o-123" style="edgeStyle=orthogonalEdgeStyle;rounded=0;orthogonalLoop=1;jettySize=auto;html=1;entryX=0.25;entryY=0;entryDx=0;entryDy=0;fontSize=26;strokeWidth=4;" edge="1" parent="1">
          <mxGeometry relative="1" as="geometry">
            <mxPoint x="2707" y="654" as="sourcePoint" />
            <mxPoint x="2707" y="737" as="targetPoint" />
            <Array as="points">
              <mxPoint x="2708" y="654" />
              <mxPoint x="2707" y="654" />
            </Array>
          </mxGeometry>
        </mxCell>
        <mxCell id="gVcf6k5lS88BYvhWTb9o-124" style="edgeStyle=orthogonalEdgeStyle;rounded=0;orthogonalLoop=1;jettySize=auto;html=1;entryX=0.25;entryY=0;entryDx=0;entryDy=0;fontSize=26;strokeWidth=4;" edge="1" parent="1">
          <mxGeometry relative="1" as="geometry">
            <mxPoint x="2918" y="570" as="sourcePoint" />
            <mxPoint x="2917" y="737" as="targetPoint" />
            <Array as="points">
              <mxPoint x="2918" y="654" />
              <mxPoint x="2917" y="654" />
            </Array>
          </mxGeometry>
        </mxCell>
        <mxCell id="gVcf6k5lS88BYvhWTb9o-125" value="X0Y1" style="text;html=1;align=center;verticalAlign=middle;whiteSpace=wrap;rounded=0;fontSize=54;fontColor=#009900;" vertex="1" parent="1">
          <mxGeometry x="2929" y="517" width="60" height="30" as="geometry" />
        </mxCell>
        <mxCell id="gVcf6k5lS88BYvhWTb9o-126" value="X5Y2" style="text;html=1;align=center;verticalAlign=middle;whiteSpace=wrap;rounded=0;fontSize=54;fontColor=#0066CC;" vertex="1" parent="1">
          <mxGeometry x="1404" y="610" width="60" height="30" as="geometry" />
        </mxCell>
        <mxCell id="gVcf6k5lS88BYvhWTb9o-127" style="edgeStyle=orthogonalEdgeStyle;rounded=0;orthogonalLoop=1;jettySize=auto;html=1;entryX=0.25;entryY=0;entryDx=0;entryDy=0;strokeWidth=4;" edge="1" parent="1" target="gVcf6k5lS88BYvhWTb9o-9">
          <mxGeometry relative="1" as="geometry">
            <mxPoint x="1436" y="640" as="sourcePoint" />
            <mxPoint x="1685" y="1150" as="targetPoint" />
            <Array as="points">
              <mxPoint x="1436" y="640" />
            </Array>
          </mxGeometry>
        </mxCell>
        <mxCell id="gVcf6k5lS88BYvhWTb9o-128" value="X4Y3" style="text;html=1;align=center;verticalAlign=middle;whiteSpace=wrap;rounded=0;fontSize=54;fontColor=#FF3333;" vertex="1" parent="1">
          <mxGeometry x="1470" y="981" width="60" height="30" as="geometry" />
        </mxCell>
        <mxCell id="gVcf6k5lS88BYvhWTb9o-129" value="X3Y3" style="text;html=1;align=center;verticalAlign=middle;whiteSpace=wrap;rounded=0;fontSize=54;fontColor=#FF3333;" vertex="1" parent="1">
          <mxGeometry x="1718" y="981" width="60" height="30" as="geometry" />
        </mxCell>
        <mxCell id="gVcf6k5lS88BYvhWTb9o-130" value="X2Y3" style="text;html=1;align=center;verticalAlign=middle;whiteSpace=wrap;rounded=0;fontSize=54;fontColor=#FF3333;" vertex="1" parent="1">
          <mxGeometry x="1964" y="981" width="60" height="30" as="geometry" />
        </mxCell>
        <mxCell id="gVcf6k5lS88BYvhWTb9o-131" value="X1Y3" style="text;html=1;align=center;verticalAlign=middle;whiteSpace=wrap;rounded=0;fontSize=54;fontColor=#FF3333;" vertex="1" parent="1">
          <mxGeometry x="2208" y="974" width="60" height="30" as="geometry" />
        </mxCell>
        <mxCell id="gVcf6k5lS88BYvhWTb9o-132" value="X0Y3" style="text;html=1;align=center;verticalAlign=middle;whiteSpace=wrap;rounded=0;fontSize=54;fontColor=#FF3333;" vertex="1" parent="1">
          <mxGeometry x="2438" y="981" width="60" height="30" as="geometry" />
        </mxCell>
        <mxCell id="gVcf6k5lS88BYvhWTb9o-133" value="X5Y3" style="text;html=1;align=center;verticalAlign=middle;whiteSpace=wrap;rounded=0;fontSize=54;fontColor=#FF3333;" vertex="1" parent="1">
          <mxGeometry x="1156" y="981" width="60" height="30" as="geometry" />
        </mxCell>
        <mxCell id="gVcf6k5lS88BYvhWTb9o-134" style="edgeStyle=orthogonalEdgeStyle;rounded=0;orthogonalLoop=1;jettySize=auto;html=1;entryX=0.871;entryY=0.002;entryDx=0;entryDy=0;fontSize=26;strokeWidth=4;entryPerimeter=0;" edge="1" parent="1">
          <mxGeometry relative="1" as="geometry">
            <mxPoint x="1486" y="1020" as="sourcePoint" />
            <mxPoint x="1486" y="1137" as="targetPoint" />
          </mxGeometry>
        </mxCell>
        <mxCell id="gVcf6k5lS88BYvhWTb9o-135" style="edgeStyle=orthogonalEdgeStyle;rounded=0;orthogonalLoop=1;jettySize=auto;html=1;entryX=0.871;entryY=0.002;entryDx=0;entryDy=0;fontSize=26;strokeWidth=4;entryPerimeter=0;" edge="1" parent="1">
          <mxGeometry relative="1" as="geometry">
            <mxPoint x="1725" y="1023" as="sourcePoint" />
            <mxPoint x="1725" y="1140" as="targetPoint" />
          </mxGeometry>
        </mxCell>
        <mxCell id="gVcf6k5lS88BYvhWTb9o-136" style="edgeStyle=orthogonalEdgeStyle;rounded=0;orthogonalLoop=1;jettySize=auto;html=1;entryX=0.871;entryY=0.002;entryDx=0;entryDy=0;fontSize=26;strokeWidth=4;entryPerimeter=0;" edge="1" parent="1">
          <mxGeometry relative="1" as="geometry">
            <mxPoint x="1968.47" y="1023" as="sourcePoint" />
            <mxPoint x="1968.47" y="1140" as="targetPoint" />
          </mxGeometry>
        </mxCell>
        <mxCell id="gVcf6k5lS88BYvhWTb9o-137" style="edgeStyle=orthogonalEdgeStyle;rounded=0;orthogonalLoop=1;jettySize=auto;html=1;entryX=0.871;entryY=0.002;entryDx=0;entryDy=0;fontSize=26;strokeWidth=4;entryPerimeter=0;" edge="1" parent="1">
          <mxGeometry relative="1" as="geometry">
            <mxPoint x="2205" y="1023" as="sourcePoint" />
            <mxPoint x="2205" y="1140" as="targetPoint" />
          </mxGeometry>
        </mxCell>
        <mxCell id="gVcf6k5lS88BYvhWTb9o-138" style="edgeStyle=orthogonalEdgeStyle;rounded=0;orthogonalLoop=1;jettySize=auto;html=1;entryX=0.871;entryY=0.002;entryDx=0;entryDy=0;fontSize=26;strokeWidth=4;entryPerimeter=0;" edge="1" parent="1">
          <mxGeometry relative="1" as="geometry">
            <mxPoint x="2445" y="1023" as="sourcePoint" />
            <mxPoint x="2445" y="1140" as="targetPoint" />
          </mxGeometry>
        </mxCell>
        <mxCell id="gVcf6k5lS88BYvhWTb9o-139" style="edgeStyle=orthogonalEdgeStyle;rounded=0;orthogonalLoop=1;jettySize=auto;html=1;entryX=0.25;entryY=0;entryDx=0;entryDy=0;strokeWidth=4;" edge="1" parent="1">
          <mxGeometry relative="1" as="geometry">
            <mxPoint x="1184.75" y="1043" as="sourcePoint" />
            <mxPoint x="1184.75" y="1543" as="targetPoint" />
            <Array as="points">
              <mxPoint x="1184.75" y="1043" />
            </Array>
          </mxGeometry>
        </mxCell>
        <mxCell id="gVcf6k5lS88BYvhWTb9o-140" style="edgeStyle=orthogonalEdgeStyle;rounded=0;orthogonalLoop=1;jettySize=auto;html=1;entryX=0.871;entryY=0.002;entryDx=0;entryDy=0;fontSize=26;strokeWidth=4;entryPerimeter=0;" edge="1" parent="1">
          <mxGeometry relative="1" as="geometry">
            <mxPoint x="1247" y="1423" as="sourcePoint" />
            <mxPoint x="1247" y="1540" as="targetPoint" />
          </mxGeometry>
        </mxCell>
        <mxCell id="gVcf6k5lS88BYvhWTb9o-141" style="edgeStyle=orthogonalEdgeStyle;rounded=0;orthogonalLoop=1;jettySize=auto;html=1;entryX=0.871;entryY=0.002;entryDx=0;entryDy=0;fontSize=26;strokeWidth=4;entryPerimeter=0;" edge="1" parent="1">
          <mxGeometry relative="1" as="geometry">
            <mxPoint x="1486" y="1426" as="sourcePoint" />
            <mxPoint x="1486" y="1543" as="targetPoint" />
          </mxGeometry>
        </mxCell>
        <mxCell id="gVcf6k5lS88BYvhWTb9o-142" style="edgeStyle=orthogonalEdgeStyle;rounded=0;orthogonalLoop=1;jettySize=auto;html=1;entryX=0.871;entryY=0.002;entryDx=0;entryDy=0;fontSize=26;strokeWidth=4;entryPerimeter=0;" edge="1" parent="1">
          <mxGeometry relative="1" as="geometry">
            <mxPoint x="1729.47" y="1426" as="sourcePoint" />
            <mxPoint x="1729.47" y="1543" as="targetPoint" />
          </mxGeometry>
        </mxCell>
        <mxCell id="gVcf6k5lS88BYvhWTb9o-143" style="edgeStyle=orthogonalEdgeStyle;rounded=0;orthogonalLoop=1;jettySize=auto;html=1;entryX=0.871;entryY=0.002;entryDx=0;entryDy=0;fontSize=26;strokeWidth=4;entryPerimeter=0;" edge="1" parent="1">
          <mxGeometry relative="1" as="geometry">
            <mxPoint x="1966" y="1426" as="sourcePoint" />
            <mxPoint x="1966" y="1543" as="targetPoint" />
          </mxGeometry>
        </mxCell>
        <mxCell id="gVcf6k5lS88BYvhWTb9o-144" style="edgeStyle=orthogonalEdgeStyle;rounded=0;orthogonalLoop=1;jettySize=auto;html=1;entryX=0.871;entryY=0.002;entryDx=0;entryDy=0;fontSize=26;strokeWidth=4;entryPerimeter=0;" edge="1" parent="1">
          <mxGeometry relative="1" as="geometry">
            <mxPoint x="2206" y="1426" as="sourcePoint" />
            <mxPoint x="2206" y="1543" as="targetPoint" />
          </mxGeometry>
        </mxCell>
        <mxCell id="gVcf6k5lS88BYvhWTb9o-145" value="X4Y4" style="text;html=1;align=center;verticalAlign=middle;whiteSpace=wrap;rounded=0;fontSize=54;fontColor=#FF33FF;" vertex="1" parent="1">
          <mxGeometry x="1231" y="1384" width="60" height="30" as="geometry" />
        </mxCell>
        <mxCell id="gVcf6k5lS88BYvhWTb9o-146" value="X3Y4" style="text;html=1;align=center;verticalAlign=middle;whiteSpace=wrap;rounded=0;fontSize=54;fontColor=#FF33FF;" vertex="1" parent="1">
          <mxGeometry x="1479" y="1384" width="60" height="30" as="geometry" />
        </mxCell>
        <mxCell id="gVcf6k5lS88BYvhWTb9o-147" value="X2Y4" style="text;html=1;align=center;verticalAlign=middle;whiteSpace=wrap;rounded=0;fontSize=54;fontColor=#FF33FF;" vertex="1" parent="1">
          <mxGeometry x="1725" y="1384" width="60" height="30" as="geometry" />
        </mxCell>
        <mxCell id="gVcf6k5lS88BYvhWTb9o-148" value="X1Y4" style="text;html=1;align=center;verticalAlign=middle;whiteSpace=wrap;rounded=0;fontSize=54;fontColor=#FF33FF;" vertex="1" parent="1">
          <mxGeometry x="1969" y="1377" width="60" height="30" as="geometry" />
        </mxCell>
        <mxCell id="gVcf6k5lS88BYvhWTb9o-149" value="X0Y4" style="text;html=1;align=center;verticalAlign=middle;whiteSpace=wrap;rounded=0;fontSize=54;fontColor=#FF33FF;" vertex="1" parent="1">
          <mxGeometry x="2199" y="1384" width="60" height="30" as="geometry" />
        </mxCell>
        <mxCell id="gVcf6k5lS88BYvhWTb9o-150" value="X5Y4" style="text;html=1;align=center;verticalAlign=middle;whiteSpace=wrap;rounded=0;fontSize=54;fontColor=#FF33FF;" vertex="1" parent="1">
          <mxGeometry x="917" y="1384" width="60" height="30" as="geometry" />
        </mxCell>
        <mxCell id="gVcf6k5lS88BYvhWTb9o-151" style="edgeStyle=orthogonalEdgeStyle;rounded=0;orthogonalLoop=1;jettySize=auto;html=1;entryX=0.25;entryY=0;entryDx=0;entryDy=0;strokeWidth=4;" edge="1" parent="1">
          <mxGeometry relative="1" as="geometry">
            <mxPoint x="945" y="1440" as="sourcePoint" />
            <mxPoint x="945" y="1940" as="targetPoint" />
            <Array as="points">
              <mxPoint x="945" y="1440" />
            </Array>
          </mxGeometry>
        </mxCell>
        <mxCell id="gVcf6k5lS88BYvhWTb9o-152" style="edgeStyle=orthogonalEdgeStyle;rounded=0;orthogonalLoop=1;jettySize=auto;html=1;entryX=0.871;entryY=0.002;entryDx=0;entryDy=0;fontSize=26;strokeWidth=4;entryPerimeter=0;" edge="1" parent="1">
          <mxGeometry relative="1" as="geometry">
            <mxPoint x="1007" y="1824" as="sourcePoint" />
            <mxPoint x="1007" y="1941" as="targetPoint" />
          </mxGeometry>
        </mxCell>
        <mxCell id="gVcf6k5lS88BYvhWTb9o-153" style="edgeStyle=orthogonalEdgeStyle;rounded=0;orthogonalLoop=1;jettySize=auto;html=1;entryX=0.871;entryY=0.002;entryDx=0;entryDy=0;fontSize=26;strokeWidth=4;entryPerimeter=0;" edge="1" parent="1">
          <mxGeometry relative="1" as="geometry">
            <mxPoint x="1246" y="1827" as="sourcePoint" />
            <mxPoint x="1246" y="1944" as="targetPoint" />
          </mxGeometry>
        </mxCell>
        <mxCell id="gVcf6k5lS88BYvhWTb9o-154" style="edgeStyle=orthogonalEdgeStyle;rounded=0;orthogonalLoop=1;jettySize=auto;html=1;entryX=0.871;entryY=0.002;entryDx=0;entryDy=0;fontSize=26;strokeWidth=4;entryPerimeter=0;" edge="1" parent="1">
          <mxGeometry relative="1" as="geometry">
            <mxPoint x="1489.47" y="1827" as="sourcePoint" />
            <mxPoint x="1489.47" y="1944" as="targetPoint" />
          </mxGeometry>
        </mxCell>
        <mxCell id="gVcf6k5lS88BYvhWTb9o-155" style="edgeStyle=orthogonalEdgeStyle;rounded=0;orthogonalLoop=1;jettySize=auto;html=1;entryX=0.871;entryY=0.002;entryDx=0;entryDy=0;fontSize=26;strokeWidth=4;entryPerimeter=0;" edge="1" parent="1">
          <mxGeometry relative="1" as="geometry">
            <mxPoint x="1726" y="1827" as="sourcePoint" />
            <mxPoint x="1726" y="1944" as="targetPoint" />
          </mxGeometry>
        </mxCell>
        <mxCell id="gVcf6k5lS88BYvhWTb9o-156" style="edgeStyle=orthogonalEdgeStyle;rounded=0;orthogonalLoop=1;jettySize=auto;html=1;entryX=0.871;entryY=0.002;entryDx=0;entryDy=0;fontSize=26;strokeWidth=4;entryPerimeter=0;" edge="1" parent="1">
          <mxGeometry relative="1" as="geometry">
            <mxPoint x="1966" y="1827" as="sourcePoint" />
            <mxPoint x="1966" y="1944" as="targetPoint" />
          </mxGeometry>
        </mxCell>
        <mxCell id="gVcf6k5lS88BYvhWTb9o-157" value="X4Y5" style="text;html=1;align=center;verticalAlign=middle;whiteSpace=wrap;rounded=0;fontSize=54;fontColor=#999900;" vertex="1" parent="1">
          <mxGeometry x="991" y="1785" width="60" height="30" as="geometry" />
        </mxCell>
        <mxCell id="gVcf6k5lS88BYvhWTb9o-158" value="X3Y5" style="text;html=1;align=center;verticalAlign=middle;whiteSpace=wrap;rounded=0;fontSize=54;fontColor=#999900;" vertex="1" parent="1">
          <mxGeometry x="1239" y="1785" width="60" height="30" as="geometry" />
        </mxCell>
        <mxCell id="gVcf6k5lS88BYvhWTb9o-159" value="X2Y5" style="text;html=1;align=center;verticalAlign=middle;whiteSpace=wrap;rounded=0;fontSize=54;fontColor=#999900;" vertex="1" parent="1">
          <mxGeometry x="1485" y="1785" width="60" height="30" as="geometry" />
        </mxCell>
        <mxCell id="gVcf6k5lS88BYvhWTb9o-160" value="X1Y5" style="text;html=1;align=center;verticalAlign=middle;whiteSpace=wrap;rounded=0;fontSize=54;fontColor=#999900;" vertex="1" parent="1">
          <mxGeometry x="1729" y="1778" width="60" height="30" as="geometry" />
        </mxCell>
        <mxCell id="gVcf6k5lS88BYvhWTb9o-161" value="X0Y5" style="text;html=1;align=center;verticalAlign=middle;whiteSpace=wrap;rounded=0;fontSize=54;fontColor=#999900;" vertex="1" parent="1">
          <mxGeometry x="1959" y="1785" width="60" height="30" as="geometry" />
        </mxCell>
        <mxCell id="gVcf6k5lS88BYvhWTb9o-162" value="X5Y5" style="text;html=1;align=center;verticalAlign=middle;whiteSpace=wrap;rounded=0;fontSize=54;fontColor=#999900;" vertex="1" parent="1">
          <mxGeometry x="677" y="1785" width="60" height="30" as="geometry" />
        </mxCell>
        <mxCell id="gVcf6k5lS88BYvhWTb9o-163" style="edgeStyle=orthogonalEdgeStyle;rounded=0;orthogonalLoop=1;jettySize=auto;html=1;entryX=0.25;entryY=0;entryDx=0;entryDy=0;strokeWidth=4;" edge="1" parent="1">
          <mxGeometry relative="1" as="geometry">
            <mxPoint x="715" y="1840" as="sourcePoint" />
            <mxPoint x="715" y="2340" as="targetPoint" />
            <Array as="points">
              <mxPoint x="715" y="1840" />
            </Array>
          </mxGeometry>
        </mxCell>
        <mxCell id="gVcf6k5lS88BYvhWTb9o-164" value="&lt;font style=&quot;color: rgb(0, 0, 153);&quot;&gt;S11&lt;/font&gt;" style="text;html=1;align=center;verticalAlign=middle;whiteSpace=wrap;rounded=0;fontSize=54;fontColor=#999900;" vertex="1" parent="1">
          <mxGeometry x="535" y="2585" width="60" height="30" as="geometry" />
        </mxCell>
        <mxCell id="gVcf6k5lS88BYvhWTb9o-165" value="&lt;font style=&quot;color: rgb(0, 0, 153);&quot;&gt;S10&lt;/font&gt;" style="text;html=1;align=center;verticalAlign=middle;whiteSpace=wrap;rounded=0;fontSize=54;fontColor=#999900;" vertex="1" parent="1">
          <mxGeometry x="737" y="2584" width="60" height="30" as="geometry" />
        </mxCell>
        <mxCell id="gVcf6k5lS88BYvhWTb9o-166" value="&lt;font style=&quot;color: rgb(0, 0, 153);&quot;&gt;S9&lt;/font&gt;" style="text;html=1;align=center;verticalAlign=middle;whiteSpace=wrap;rounded=0;fontSize=54;fontColor=#999900;" vertex="1" parent="1">
          <mxGeometry x="960.5" y="2584" width="60" height="30" as="geometry" />
        </mxCell>
        <mxCell id="gVcf6k5lS88BYvhWTb9o-167" value="&lt;font style=&quot;color: rgb(0, 0, 153);&quot;&gt;S8&lt;/font&gt;" style="text;html=1;align=center;verticalAlign=middle;whiteSpace=wrap;rounded=0;fontSize=54;fontColor=#999900;" vertex="1" parent="1">
          <mxGeometry x="1195" y="2585" width="60" height="30" as="geometry" />
        </mxCell>
        <mxCell id="gVcf6k5lS88BYvhWTb9o-168" value="&lt;font style=&quot;color: rgb(0, 0, 153);&quot;&gt;S7&lt;/font&gt;" style="text;html=1;align=center;verticalAlign=middle;whiteSpace=wrap;rounded=0;fontSize=54;fontColor=#999900;" vertex="1" parent="1">
          <mxGeometry x="1448" y="2586" width="60" height="30" as="geometry" />
        </mxCell>
        <mxCell id="gVcf6k5lS88BYvhWTb9o-169" value="&lt;font style=&quot;color: rgb(0, 0, 153);&quot;&gt;S6&lt;/font&gt;" style="text;html=1;align=center;verticalAlign=middle;whiteSpace=wrap;rounded=0;fontSize=54;fontColor=#999900;" vertex="1" parent="1">
          <mxGeometry x="1675" y="2585" width="60" height="30" as="geometry" />
        </mxCell>
        <mxCell id="gVcf6k5lS88BYvhWTb9o-170" value="&lt;font color=&quot;#000099&quot;&gt;S5&lt;/font&gt;" style="text;html=1;align=center;verticalAlign=middle;whiteSpace=wrap;rounded=0;fontSize=54;fontColor=#999900;" vertex="1" parent="1">
          <mxGeometry x="1913.5" y="2585" width="60" height="30" as="geometry" />
        </mxCell>
        <mxCell id="gVcf6k5lS88BYvhWTb9o-171" value="&lt;font style=&quot;color: rgb(0, 0, 153);&quot;&gt;S4&lt;/font&gt;" style="text;html=1;align=center;verticalAlign=middle;whiteSpace=wrap;rounded=0;fontSize=54;fontColor=#999900;" vertex="1" parent="1">
          <mxGeometry x="2152" y="2586" width="60" height="30" as="geometry" />
        </mxCell>
        <mxCell id="gVcf6k5lS88BYvhWTb9o-172" value="&lt;font style=&quot;color: rgb(0, 0, 153);&quot;&gt;S3&lt;/font&gt;" style="text;html=1;align=center;verticalAlign=middle;whiteSpace=wrap;rounded=0;fontSize=54;fontColor=#999900;" vertex="1" parent="1">
          <mxGeometry x="2380" y="2584" width="60" height="30" as="geometry" />
        </mxCell>
        <mxCell id="gVcf6k5lS88BYvhWTb9o-173" value="&lt;font style=&quot;color: rgb(0, 0, 153);&quot;&gt;S2&lt;/font&gt;" style="text;html=1;align=center;verticalAlign=middle;whiteSpace=wrap;rounded=0;fontSize=54;fontColor=#999900;" vertex="1" parent="1">
          <mxGeometry x="2633.5" y="2584" width="60" height="30" as="geometry" />
        </mxCell>
        <mxCell id="gVcf6k5lS88BYvhWTb9o-174" value="&lt;font style=&quot;color: rgb(0, 0, 153);&quot;&gt;S1&lt;/font&gt;" style="text;html=1;align=center;verticalAlign=middle;whiteSpace=wrap;rounded=0;fontSize=54;fontColor=#999900;" vertex="1" parent="1">
          <mxGeometry x="2869" y="2581" width="60" height="30" as="geometry" />
        </mxCell>
        <mxCell id="gVcf6k5lS88BYvhWTb9o-175" value="&lt;font style=&quot;color: rgb(0, 0, 153);&quot;&gt;S0&lt;/font&gt;" style="text;html=1;align=center;verticalAlign=middle;whiteSpace=wrap;rounded=0;fontSize=54;fontColor=#999900;" vertex="1" parent="1">
          <mxGeometry x="3105" y="2584" width="60" height="30" as="geometry" />
        </mxCell>
        <mxCell id="gVcf6k5lS88BYvhWTb9o-179" value="" style="group;strokeWidth=5;" vertex="1" connectable="0" parent="1">
          <mxGeometry x="555.5" y="540" width="514.5" height="440" as="geometry" />
        </mxCell>
        <mxCell id="gVcf6k5lS88BYvhWTb9o-176" value="&lt;b style=&quot;&quot;&gt;&lt;font style=&quot;font-size: 44px;&quot;&gt;6x6 Multiple calcutalor&lt;/font&gt;&lt;/b&gt;" style="shape=umlActor;verticalLabelPosition=bottom;verticalAlign=top;html=1;outlineConnect=0;strokeWidth=9;sketch=1;curveFitting=1;jiggle=2;shadow=1;" vertex="1" parent="gVcf6k5lS88BYvhWTb9o-179">
          <mxGeometry y="131.12582781456953" width="166.86486486486484" height="308.87417218543044" as="geometry" />
        </mxCell>
        <mxCell id="gVcf6k5lS88BYvhWTb9o-177" value="&lt;font style=&quot;font-size: 35px;&quot;&gt;&amp;nbsp; &amp;nbsp;GOOD！&lt;/font&gt;" style="ellipse;shape=cloud;whiteSpace=wrap;html=1;strokeWidth=7;" vertex="1" parent="gVcf6k5lS88BYvhWTb9o-179">
          <mxGeometry x="250.2972972972973" width="264.2027027027027" height="192.31788079470198" as="geometry" />
        </mxCell>
        <mxCell id="gVcf6k5lS88BYvhWTb9o-178" value="￣▽￣" style="text;html=1;align=center;verticalAlign=middle;whiteSpace=wrap;rounded=0;strokeWidth=4;fontSize=23;fontStyle=1" vertex="1" parent="gVcf6k5lS88BYvhWTb9o-179">
          <mxGeometry x="25.029729729729727" y="135.49668874172184" width="119.58648648648648" height="90.33112582781456" as="geometry" />
        </mxCell>
        <mxCell id="gVcf6k5lS88BYvhWTb9o-182" value="" style="endArrow=none;html=1;rounded=0;strokeColor=#FF0000;strokeWidth=19;" edge="1" parent="1">
          <mxGeometry width="50" height="50" relative="1" as="geometry">
            <mxPoint x="1953" y="370" as="sourcePoint" />
            <mxPoint x="1953" y="2380" as="targetPoint" />
          </mxGeometry>
        </mxCell>
        <mxCell id="gVcf6k5lS88BYvhWTb9o-183" value="" style="endArrow=none;html=1;rounded=0;strokeColor=#FF0000;strokeWidth=19;" edge="1" parent="1">
          <mxGeometry width="50" height="50" relative="1" as="geometry">
            <mxPoint x="690" y="2380" as="sourcePoint" />
            <mxPoint x="1956" y="2380" as="targetPoint" />
          </mxGeometry>
        </mxCell>
        <mxCell id="gVcf6k5lS88BYvhWTb9o-185" value="&lt;font style=&quot;font-size: 120px;&quot;&gt;Critical Path&lt;/font&gt;&lt;div&gt;&lt;br&gt;&lt;/div&gt;" style="text;html=1;align=center;verticalAlign=middle;whiteSpace=wrap;rounded=0;" vertex="1" parent="1">
          <mxGeometry x="1428" y="150" width="1021" height="80" as="geometry" />
        </mxCell>
      </root>
    </mxGraphModel>
  </diagram>
</mxfile>
